Coordinates
version=1
nRows=32
nColumns=35
inDegrees=yes

Units are S.I. units (second, meters, Newtons, ...)
If the header above contains a line with 'inDegrees', this indicates whether rotational values are in degrees (yes) or radians (no).

endheader
time	joint_0	joint_1	joint_2	joint_3	joint_4	joint_5	joint_6	joint_7	joint_8	joint_9	joint_10	joint_11	joint_12	joint_13	joint_14	joint_15	joint_16	joint_17	joint_18	joint_19	joint_20	joint_21	joint_22	joint_23	joint_24	joint_25	joint_26	joint_27	joint_28	joint_29	joint_30	joint_31	joint_32	joint_33
0.0	53.587193	5.822798	55.234432	41.13624	39.73432	-0.17666481	3.430444	-6.231611	-1.179848	-9.81178	-1.3979399	3.3119318	-5.8655987	-4.651817	-7.343555	-1.0034399	8.65809	-8.069594	3.6630218	-3.2761307	7.0662627	-7.364161	18.349815	23.06257	78.68422	0.0	0.0	6.6528635	-6.4282365	14.464148	26.609148	73.12949	0.0	0.0
0.016667	53.65572	5.7909985	55.180805	40.923023	39.972805	-0.13234584	3.2045598	-5.9841204	-1.6175289	-10.661494	-0.888318	4.4069004	-5.756252	-3.821182	-9.285356	-0.610943	9.268479	-7.2635455	2.951797	-2.8835998	6.5437617	-6.8889456	15.866503	23.34708	78.37294	0.0	0.0	6.6335015	-6.2494817	13.126488	26.237722	72.87276	0.0	0.0
0.033334	53.708317	5.76258	55.13336	40.73588	40.17808	-0.09841659	3.0176065	-5.7877026	-2.0119	-11.448722	-0.46059495	5.3612204	-5.6723566	-3.1064758	-10.976095	-0.294504	9.826206	-6.6264477	2.337838	-2.5087488	6.0869217	-6.4597936	13.57055	23.635656	78.09821	0.0	0.0	6.626238	-6.100452	11.926097	25.936283	72.64174	0.0	0.0
0.050001000000000004	53.734726	5.7404637	55.094913	40.592964	40.331482	-0.077858955	2.8953185	-5.6696587	-2.328105	-12.090638	-0.162858	6.0850487	-5.6257467	-2.577553	-12.2422285	-0.08704399	10.264589	-6.2433376	1.8853558	-2.179946	5.7510295	-6.1199903	11.688955	23.914383	77.890686	0.0	0.0	6.6400757	-6.0003967	10.987137	25.740208	72.460304	0.0	0.0
0.066668	53.73324	5.7259107	55.064266	40.49837	40.43061	-0.06493546	2.837188	-5.6202817	-2.5511367	-12.530192	0.003991	6.5648355	-5.6021447	-2.242137	-13.046085	0.021569999	10.534419	-6.092168	1.6061039	-1.918466	5.558684	-5.8962317	10.396119	24.164717	77.76431	0.0	0.0	6.6817474	-5.9493065	10.372351	25.637383	72.34024	0.0	0.0
0.083335	53.708717	5.717832	55.040543	40.443813	40.48608	-0.052287214	2.8246279	-5.6095877	-2.691408	-12.777944	0.071789	6.8505855	-5.575911	-2.06109	-13.481377	0.060586996	10.63072	-6.0977526	1.464589	-1.717984	5.4901547	-5.789436	9.710245	24.39314	77.71395	0.0	0.0	6.7595363	-5.9313107	10.057089	25.584515	72.27547	0.0	0.0
0.10000200000000001	53.669872	5.713592	55.02662	40.415276	40.513744	-0.038359262	2.8366344	-5.6137047	-2.7750099	-12.894356	0.080405995	7.0160747	-5.5352416	-1.9780308	-13.70654	0.060344998	10.5827675	-6.193309	1.4045739	-1.550381	5.4972486	-5.7825875	9.51806	24.635065	77.72483	0.0	0.0	6.8812957	-5.9262977	9.9625435	25.5318	72.24882	0.0	0.0
0.11666900000000001	53.6277	5.7109566	55.02656	40.39995	40.527534	-0.027222972	2.8580403	-5.6239038	-2.8275847	-12.950736	0.062267996	7.119611	-5.487247	-1.9442768	-13.871027	0.043962996	10.431853	-6.3378024	1.3766179	-1.386464	5.526067	-5.8531985	9.666388	24.929058	77.781555	0.0	0.0	7.0457153	-5.9188786	10.004429	25.438763	72.24242	0.0	0.0
0.133336	53.59126	5.7084928	55.042034	40.38948	40.536373	-0.0236599	2.8805861	-5.6406136	-2.86586	-13.002469	0.037979998	7.1865106	-5.4465494	-1.928903	-14.066312	0.025338	10.215184	-6.5072603	1.35148	-1.2133429	5.540938	-5.975702	10.012309	25.284807	77.868744	0.0	0.0	7.2367516	-5.9035344	10.116281	25.287785	72.243515	0.0	0.0
0.15000300000000003	53.563015	5.7057424	55.072685	40.37992	40.544426	-0.028601382	2.9011483	-5.6634665	-2.8975549	-13.077344	0.017705	7.21277	-5.4217124	-1.9171239	-14.307362	0.010813	9.957237	-6.6851726	1.3199489	-1.0420729	5.5404835	-6.1180215	10.428742	25.665064	77.96817	0.0	0.0	7.426318	-5.8859076	10.250866	25.09296	72.245895	0.0	0.0
0.16667	53.539806	5.7029924	55.116287	40.370335	40.55261	-0.039409433	2.9200306	-5.6890507	-2.9242618	-13.179547	0.0045589996	7.1831484	-5.412781	-1.9048468	-14.55774	0.0019	9.672745	-6.861654	1.2853189	-0.897688	5.547865	-6.2481756	10.816554	26.006655	78.06237	0.0	0.0	7.5871444	-5.8766174	10.378795	24.884912	72.24828	0.0	0.0
0.18333700000000003	53.517693	5.7007008	55.166477	40.36129	40.56014	-0.054038133	2.9401703	-5.717272	-2.944633	-13.30354	-0.002098	7.0929675	-5.419613	-1.8934668	-14.780072	-0.002293	9.377434	-7.0379286	1.254591	-0.79746395	5.5837507	-6.3492866	11.130294	26.267477	78.14376	0.0	0.0	7.7089276	-5.8814077	10.489951	24.679571	72.251595	0.0	0.0
0.20000400000000002	53.496037	5.698753	55.21312	40.35359	40.565876	-0.072996855	2.9661515	-5.7554154	-2.956995	-13.4439535	-0.0042799995	6.9561725	-5.4473033	-1.8859918	-14.9617195	-0.0034039996	9.092268	-7.2240634	1.2328209	-0.740919	5.65153	-6.4233365	11.378906	26.44541	78.21685	0.0	0.0	7.800039	-5.8976336	10.590114	24.466887	72.25704	0.0	0.0
0.21667100000000003	53.47799	5.696976	55.249043	40.34753	40.569202	-0.097624816	3.0022216	-5.8146706	-2.961156	-13.596686	-0.004026	6.7978916	-5.5033855	-1.8846009	-15.107163	-0.0029449998	8.837774	-7.4284067	1.22118	-0.71634895	5.7401385	-6.4810147	11.595894	26.560242	78.29101	0.0	0.0	7.874222	-5.917988	10.691037	24.226852	72.26535	0.0	0.0
0.23333800000000002	53.466755	5.6956587	55.275227	40.342842	40.570282	-0.12730096	3.0490928	-5.9003477	-2.9591188	-13.755914	-0.002835	6.6431174	-5.589314	-1.8894058	-15.225144	-0.001961	8.626361	-7.647176	1.217719	-0.70931494	5.8320646	-6.5308557	11.806096	26.632782	78.37125	0.0	0.0	7.937768	-5.9355335	10.799047	23.953264	72.276276	0.0	0.0
0.25000500000000003	53.46366	5.695372	55.296825	40.339035	40.569984	-0.15785913	3.1015673	-6.0031314	-2.9545949	-13.912105	-0.0015779999	6.507837	-5.6928887	-1.8983219	-15.323156	-0.0010249999	8.45742	-7.861077	1.2194599	-0.707078	5.910771	-6.5741787	12.006942	26.675835	78.45265	0.0	0.0	7.985162	-5.9469776	10.9078865	23.667942	72.288246	0.0	0.0
0.266672	53.468536	5.6967473	55.31533	40.335747	40.56932	-0.18377195	3.1511846	-6.1048555	-2.9513729	-14.056252	-0.00063399994	6.3958187	-5.7941546	-1.908212	-15.407783	-0.00036299997	8.318296	-8.04497	1.2238079	-0.70167094	5.9657536	-6.6072392	12.176971	26.694643	78.524414	0.0	0.0	8.005973	-5.9523754	11.003648	23.40811	72.29909	0.0	0.0
0.283339	53.479477	5.7001276	55.326904	40.332905	40.568844	-0.20257191	3.1923048	-6.1943336	-2.9514358	-14.186944	-7.2999996e-05	6.3017216	-5.880928	-1.916637	-15.486707	8.999999e-06	8.191754	-8.1846285	1.228933	-0.69188195	5.9943686	-6.627504	12.301797	26.692266	78.579666	0.0	0.0	7.9973364	-5.9524026	11.077688	23.196669	72.307495	0.0	0.0
0.30000600000000005	53.491737	5.705685	55.328053	40.330605	40.56855	-0.2156994	3.2240765	-6.2710934	-2.95469	-14.3079	0.00017799999	6.219002	-5.9524946	-1.922279	-15.565816	0.00016	8.067555	-8.28171	1.2341549	-0.68137294	6.0001297	-6.6363134	12.384511	26.673536	78.61898	0.0	0.0	7.9675303	-5.9472117	11.130921	23.033764	72.31346	0.0	0.0
0.31667300000000004	53.499184	5.712618	55.319744	40.32894	40.56828	-0.22546408	3.2474995	-6.3359404	-2.9602637	-14.4181	0.00023399999	6.1478467	-6.0102386	-1.924178	-15.64331	0.00017899998	7.9515777	-8.345436	1.2403098	-0.67410696	5.9887824	-6.6366954	12.435655	26.645304	78.64559	0.0	0.0	7.9291525	-5.9372587	11.167651	22.91277	72.317474	0.0	0.0
0.33334	53.49844	5.719035	55.30416	40.327824	40.568054	-0.23319522	3.263603	-6.3865585	-2.967468	-14.511504	0.000194	6.094177	-6.053071	-1.9215479	-15.711914	0.000139	7.8605056	-8.385998	1.2492789	-0.67212695	5.96508	-6.6310816	12.46461	26.614025	78.662155	0.0	0.0	7.8926	-5.9232345	11.19128	22.829649	72.31997	0.0	0.0
0.350007	53.488358	5.7228165	55.28262	40.326942	40.568035	-0.23980604	3.27424	-6.4214826	-2.975705	-14.586474	0.00012499999	6.061327	-6.0808215	-1.9144479	-15.768131	8.5e-05	7.8057675	-8.413573	1.2626469	-0.6763579	5.93179	-6.6208224	12.479247	26.58296	78.67118	0.0	0.0	7.8641562	-5.9050198	11.2051	22.778727	72.32138	0.0	0.0
0.36667400000000006	53.46951	5.7225876	55.258442	40.325966	40.568325	-0.24613132	3.2822378	-6.4422307	-2.9839158	-14.648158	6.299999e-05	6.0461597	-6.0958285	-1.904465	-15.815211	3.9e-05	7.786039	-8.437078	1.2800059	-0.68732095	5.89154	-6.6068068	12.486423	26.55244	78.67552	0.0	0.0	7.8474445	-5.8821096	11.212861	22.75081	72.322174	0.0	0.0
0.38334100000000004	53.444527	5.7189207	55.235176	40.32489	40.568718	-0.25238392	3.2901235	-6.4512696	-2.9902139	-14.701813	2e-05	6.0420895	-6.1007805	-1.8947939	-15.858074	1e-05	7.7920184	-8.461532	1.297956	-0.704861	5.8494606	-6.5903015	12.490843	26.522722	78.67761	0.0	0.0	7.8458414	-5.855279	11.2175865	22.73759	72.3227	0.0	0.0
0.40000800000000003	53.417255	5.7139935	55.213177	40.32408	40.568737	-0.25807944	3.2993052	-6.450778	-2.9925478	-14.749279	-2.9999999e-06	6.0430384	-6.0978866	-1.889141	-15.899738	-5e-06	7.813112	-8.487851	1.311742	-0.72813696	5.8119397	-6.572829	12.494773	26.494865	78.67895	0.0	0.0	7.8623514	-5.8265505	11.220935	22.734125	72.32316	0.0	0.0
0.416675	53.391872	5.7099824	55.190544	40.32393	40.567974	-0.26270002	3.310153	-6.4435096	-2.9902108	-14.790687	-1.19999995e-05	6.0457044	-6.0903845	-1.889871	-15.9411125	-1e-05	7.840922	-8.51474	1.3188239	-0.755556	5.782269	-6.555431	12.499028	26.469416	78.68025	0.0	0.0	7.8961363	-5.797794	11.223669	22.737225	72.32365	0.0	0.0
0.43334200000000006	53.372334	5.7074614	55.16688	40.324528	40.566357	-0.26627797	3.3223715	-6.4338036	-2.9842858	-14.82516	-1.19999995e-05	6.050441	-6.0836143	-1.897305	-15.980646	-8.999999e-06	7.8698034	-8.539287	1.320465	-0.78413796	5.758978	-6.5387106	12.503759	26.445929	78.68176	0.0	0.0	7.939924	-5.7704325	11.226096	22.743795	72.324135	0.0	0.0
0.45000900000000005	53.36231	5.7054563	55.14482	40.325867	40.563915	-0.26944286	3.3356779	-6.428014	-2.9759958	-14.851241	-8.999999e-06	6.061238	-6.0844917	-1.911007	-16.015682	-5.9999998e-06	7.897169	-8.557458	1.3201739	-0.810404	5.7370977	-6.5227613	12.508939	26.422514	78.68346	0.0	0.0	7.9833927	-5.7449436	11.228312	22.750969	72.32458	0.0	0.0
0.46667600000000004	53.364082	5.7028775	55.12924	40.328156	40.560394	-0.27313668	3.3505101	-6.434538	-2.9646897	-14.869256	-5e-06	6.085047	-6.1003675	-1.9314239	-16.046247	-3.9999995e-06	7.924571	-8.566104	1.321448	-0.832828	5.7094555	-6.5063996	12.514897	26.394487	78.685425	0.0	0.0	8.019881	-5.719225	11.230525	22.756884	72.32492	0.0	0.0
0.483343	53.377377	5.69944	55.12328	40.331932	40.55515	-0.27843812	3.3680139	-6.46235	-2.9479048	-14.8822775	-1.9999998e-06	6.129798	-6.1376176	-1.9598209	-16.075993	-9.999999e-07	7.9568677	-8.564145	1.326605	-0.8520389	5.668872	-6.4874516	12.522331	26.354933	78.68796	0.0	0.0	8.048332	-5.6889877	11.233133	22.760666	72.32518	0.0	0.0
0.5000100000000001	53.39714	5.6964035	55.127403	40.33761	40.54769	-0.2864726	3.3890882	-6.5166416	-2.923904	-14.894343	-0.0	6.2001176	-6.1988564	-1.9963028	-16.108847	-0.0	7.998521	-8.552444	1.336466	-0.86823595	5.6125526	-6.4648213	12.531545	26.298601	78.69127	0.0	0.0	8.069708	-5.6512165	11.236461	22.761747	72.32537	0.0	0.0
0.516677	53.41399	5.6954865	55.142414	40.344772	40.538498	-0.29789707	3.4127445	-6.5927563	-2.894867	-14.908106	0.0	6.291187	-6.2787094	-2.0372548	-16.145416	0.0	8.049019	-8.534065	1.349968	-0.879779	5.5464735	-6.44052	12.541559	26.226881	78.69527	0.0	0.0	8.084242	-5.607408	11.240531	22.759909	72.325516	0.0	0.0
